M48
; DRILL file {KiCad 6.0.4-6f826c9f35~116~ubuntu20.04.1} date Sun 10 Apr 2022 09:58:49 PM CEST
; FORMAT={-:-/ absolute / inch / decimal}
; #@! TF.CreationDate,2022-04-10T21:58:49+02:00
; #@! TF.GenerationSoftware,Kicad,Pcbnew,6.0.4-6f826c9f35~116~ubuntu20.04.1
; #@! TF.FileFunction,Plated,1,2,PTH
FMAT,2
INCH
; #@! TA.AperFunction,Plated,PTH,ViaDrill
T1C0.0157
; #@! TA.AperFunction,Plated,PTH,ComponentDrill
T2C0.0315
; #@! TA.AperFunction,Plated,PTH,ComponentDrill
T3C0.0394
; #@! TA.AperFunction,Plated,PTH,ComponentDrill
T4C0.0512
; #@! TA.AperFunction,Plated,PTH,ComponentDrill
T5C0.0591
%
G90
G05
T1
X1.315Y-4.535
X1.66Y-3.915
X1.67Y-4.895
X2.015Y-4.825
X2.215Y-4.93
X2.28Y-4.12
X2.315Y-5.17
X2.38Y-4.61
X2.515Y-4.955
X2.805Y-4.425
X2.895Y-4.62
X2.955Y-5.265
X3.09Y-4.16
X3.645Y-4.095
X3.69Y-4.63
X3.87Y-4.465
X4.225Y-3.935
X4.31Y-5.135
X4.645Y-3.765
X5.155Y-4.8
X5.26Y-3.52
X5.705Y-4.42
X5.775Y-3.885
T2
X2.0834Y-4.18
X2.14Y-4.375
X2.14Y-4.5719
X2.14Y-4.68
X2.14Y-4.8769
X2.1819Y-4.18
X2.2996Y-4.585
X2.3Y-4.345
X2.3Y-4.465
X2.3Y-4.705
X2.3Y-4.98
X2.3516Y-4.205
X2.3516Y-4.84
X2.5484Y-4.205
X2.5484Y-4.84
X2.5996Y-4.585
X2.6Y-4.345
X2.6Y-4.465
X2.6Y-4.705
X2.6Y-4.98
X2.71Y-4.885
X2.71Y-5.01
X2.7146Y-4.1896
X2.715Y-4.315
X2.715Y-4.415
X2.715Y-4.515
X2.715Y-4.615
X2.7616Y-4.755
X2.9584Y-4.755
X3.01Y-4.885
X3.01Y-5.01
X3.0146Y-4.1896
X3.015Y-4.315
X3.015Y-4.415
X3.015Y-4.515
X3.015Y-4.615
X3.3581Y-5.045
X3.555Y-5.045
X4.0934Y-4.095
X4.1919Y-4.095
X4.32Y-3.945
X4.32Y-4.065
X4.32Y-4.185
X4.32Y-4.305
X4.3666Y-4.435
X4.5634Y-4.435
X4.62Y-3.945
X4.62Y-4.065
X4.62Y-4.185
X4.62Y-4.305
X4.7716Y-4.255
X4.7716Y-4.4
X4.9684Y-4.255
X4.9684Y-4.4
X5.315Y-3.755
X5.315Y-4.055
T3
X1.5002Y-4.72
X1.6002Y-4.72
X1.7002Y-4.72
X1.8002Y-4.72
X1.9002Y-4.72
X3.8248Y-4.335
X3.8252Y-4.72
X3.9248Y-4.335
X3.9252Y-4.72
X4.0252Y-4.72
X4.1252Y-4.72
X4.2252Y-4.72
X5.315Y-3.63
T4
X1.9616Y-4.981
X2.0543Y-5.0185
X2.147Y-5.0559
X3.3606Y-5.215
X3.4606Y-5.215
X3.5606Y-5.215
X4.4799Y-5.0241
X4.575Y-4.9932
X4.6701Y-4.9623
X5.3356Y-4.6297
X5.4222Y-4.5797
X5.5088Y-4.5297
T5
G00X1.5319Y-4.11
M15
G01X1.5319Y-4.1533
M16
G05
G00X1.5319Y-4.2967
M15
G01X1.5319Y-4.34
M16
G05
G00X1.715Y-4.11
M15
G01X1.715Y-4.1533
M16
G05
G00X1.715Y-4.2967
M15
G01X1.715Y-4.34
M16
G05
G00X1.8981Y-4.11
M15
G01X1.8981Y-4.1533
M16
G05
G00X1.8981Y-4.2967
M15
G01X1.8981Y-4.34
M16
G05
G00X3.221Y-4.1999
M15
G01X3.221Y-4.2432
M16
G05
G00X3.221Y-4.3869
M15
G01X3.221Y-4.4302
M16
G05
G00X3.221Y-4.5719
M15
G01X3.221Y-4.6152
M16
G05
G00X3.221Y-4.7589
M15
G01X3.221Y-4.8022
M16
G05
G00X3.404Y-4.1999
M15
G01X3.404Y-4.2432
M16
G05
G00X3.404Y-4.3869
M15
G01X3.404Y-4.4302
M16
G05
G00X3.404Y-4.5719
M15
G01X3.404Y-4.6152
M16
G05
G00X3.404Y-4.7589
M15
G01X3.404Y-4.8022
M16
G05
G00X3.5871Y-4.1999
M15
G01X3.5871Y-4.2432
M16
G05
G00X3.5871Y-4.3869
M15
G01X3.5871Y-4.4302
M16
G05
G00X3.5871Y-4.5719
M15
G01X3.5871Y-4.6152
M16
G05
G00X3.5871Y-4.7589
M15
G01X3.5871Y-4.8022
M16
G05
G00X4.797Y-3.7916
M15
G01X4.797Y-3.8349
M16
G05
G00X4.797Y-3.9782
M15
G01X4.797Y-4.0215
M16
G05
G00X4.98Y-3.7916
M15
G01X4.98Y-3.8349
M16
G05
G00X4.98Y-3.9782
M15
G01X4.98Y-4.0215
M16
G05
G00X5.1631Y-3.7916
M15
G01X5.1631Y-3.8349
M16
G05
G00X5.1631Y-3.9782
M15
G01X5.1631Y-4.0215
M16
G05
T0
M30
