%TF.GenerationSoftware,KiCad,Pcbnew,6.0.4-6f826c9f35~116~ubuntu20.04.1*%
%TF.CreationDate,2022-05-04T16:18:10+02:00*%
%TF.ProjectId,preamp,70726561-6d70-42e6-9b69-6361645f7063,A*%
%TF.SameCoordinates,Original*%
%TF.FileFunction,Soldermask,Top*%
%TF.FilePolarity,Negative*%
%FSLAX46Y46*%
G04 Gerber Fmt 4.6, Leading zero omitted, Abs format (unit mm)*
G04 Created by KiCad (PCBNEW 6.0.4-6f826c9f35~116~ubuntu20.04.1) date 2022-05-04 16:18:10*
%MOMM*%
%LPD*%
G01*
G04 APERTURE LIST*
G04 Aperture macros list*
%AMHorizOval*
0 Thick line with rounded ends*
0 $1 width*
0 $2 $3 position (X,Y) of the first rounded end (center of the circle)*
0 $4 $5 position (X,Y) of the second rounded end (center of the circle)*
0 Add line between two ends*
20,1,$1,$2,$3,$4,$5,0*
0 Add two circle primitives to create the rounded ends*
1,1,$1,$2,$3*
1,1,$1,$4,$5*%
%AMRotRect*
0 Rectangle, with rotation*
0 The origin of the aperture is its center*
0 $1 length*
0 $2 width*
0 $3 Rotation angle, in degrees counterclockwise*
0 Add horizontal line*
21,1,$1,$2,0,0,$3*%
G04 Aperture macros list end*
%ADD10C,1.600000*%
%ADD11O,1.600000X1.600000*%
%ADD12R,1.700000X1.700000*%
%ADD13O,1.700000X1.700000*%
%ADD14R,2.000000X2.000000*%
%ADD15O,2.000000X2.000000*%
%ADD16R,1.600000X1.600000*%
%ADD17RotRect,2.000000X2.000000X68.000000*%
%ADD18HorizOval,2.000000X0.000000X0.000000X0.000000X0.000000X0*%
%ADD19C,2.000000*%
%ADD20RotRect,2.000000X2.000000X108.000000*%
%ADD21RotRect,2.000000X2.000000X120.000000*%
%ADD22O,2.500000X3.600000*%
G04 APERTURE END LIST*
D10*
%TO.C,C10*%
X121198000Y-108077000D03*
X126198000Y-108077000D03*
%TD*%
%TO.C,C3*%
X54356000Y-118872000D03*
X54356000Y-123872000D03*
%TD*%
%TO.C,R8*%
X68834000Y-127254000D03*
D11*
X76454000Y-127254000D03*
%TD*%
D12*
%TO.C,J2*%
X97160000Y-119888000D03*
D13*
X99700000Y-119888000D03*
X102240000Y-119888000D03*
X104780000Y-119888000D03*
X107320000Y-119888000D03*
%TD*%
D10*
%TO.C,C11*%
X121198000Y-111760000D03*
X126198000Y-111760000D03*
%TD*%
D14*
%TO.C,P2*%
X85359000Y-132461000D03*
D15*
X87899000Y-132461000D03*
X90439000Y-132461000D03*
%TD*%
D16*
%TO.C,C1*%
X52919621Y-106172000D03*
D10*
X55419621Y-106172000D03*
%TD*%
%TO.C,R9*%
X109728000Y-100203000D03*
D11*
X117348000Y-100203000D03*
%TD*%
D10*
%TO.C,R1*%
X58420000Y-110363000D03*
D11*
X66040000Y-110363000D03*
%TD*%
D16*
%TO.C,C8*%
X103973621Y-104013000D03*
D10*
X106473621Y-104013000D03*
%TD*%
D17*
%TO.C,P1*%
X49824276Y-126517399D03*
D18*
X52179323Y-127468900D03*
D19*
X54534370Y-128420400D03*
%TD*%
D10*
%TO.C,R11*%
X109728000Y-106299000D03*
D11*
X117348000Y-106299000D03*
%TD*%
D10*
%TO.C,C7*%
X90297000Y-128143000D03*
X85297000Y-128143000D03*
%TD*%
%TO.C,R12*%
X117348000Y-109347000D03*
D11*
X109728000Y-109347000D03*
%TD*%
D10*
%TO.C,R2*%
X66040000Y-113411000D03*
D11*
X58420000Y-113411000D03*
%TD*%
D10*
%TO.C,R5*%
X66040000Y-126492000D03*
D11*
X58420000Y-126492000D03*
%TD*%
D10*
%TO.C,R3*%
X58410000Y-116459000D03*
D11*
X66030000Y-116459000D03*
%TD*%
D10*
%TO.C,R6*%
X76571000Y-106416000D03*
D11*
X68951000Y-106416000D03*
%TD*%
D12*
%TO.C,J1*%
X38105000Y-119888000D03*
D13*
X40645000Y-119888000D03*
X43185000Y-119888000D03*
X45725000Y-119888000D03*
X48265000Y-119888000D03*
%TD*%
D20*
%TO.C,J4*%
X113790331Y-127611239D03*
D19*
X116206015Y-126826336D03*
X118621698Y-126041433D03*
%TD*%
D10*
%TO.C,C6*%
X75144000Y-120777000D03*
X70144000Y-120777000D03*
%TD*%
%TO.C,C4*%
X64730000Y-106807000D03*
X59730000Y-106807000D03*
%TD*%
D16*
%TO.C,U1*%
X68961000Y-109601000D03*
D11*
X68961000Y-112141000D03*
X68961000Y-114681000D03*
X68961000Y-117221000D03*
X76581000Y-117221000D03*
X76581000Y-114681000D03*
X76581000Y-112141000D03*
X76581000Y-109601000D03*
%TD*%
D10*
%TO.C,C9*%
X115911000Y-112649000D03*
X110911000Y-112649000D03*
%TD*%
D12*
%TO.C,J5*%
X135001000Y-92202000D03*
%TD*%
D10*
%TO.C,R13*%
X135001000Y-102997000D03*
D11*
X135001000Y-95377000D03*
%TD*%
D10*
%TO.C,C2*%
X54356000Y-111125000D03*
X54356000Y-116125000D03*
%TD*%
%TO.C,R4*%
X66040000Y-119507000D03*
D11*
X58420000Y-119507000D03*
%TD*%
D12*
%TO.C,J3*%
X97150000Y-110109000D03*
D13*
X99690000Y-110109000D03*
%TD*%
D10*
%TO.C,R7*%
X68834000Y-124079000D03*
D11*
X76454000Y-124079000D03*
%TD*%
D10*
%TO.C,C5*%
X59730000Y-122936000D03*
X64730000Y-122936000D03*
%TD*%
%TO.C,R10*%
X117348000Y-103251000D03*
D11*
X109728000Y-103251000D03*
%TD*%
D21*
%TO.C,P3*%
X135524000Y-117594500D03*
D19*
X137723705Y-116324500D03*
X139923409Y-115054500D03*
%TD*%
D22*
%TO.C,S1*%
X38911000Y-109685000D03*
X43561000Y-109685000D03*
X48211000Y-109685000D03*
X38911000Y-104945000D03*
X43561000Y-104945000D03*
X48211000Y-104945000D03*
%TD*%
%TO.C,S3*%
X121842873Y-101596654D03*
X126492873Y-101596654D03*
X131142873Y-101596654D03*
X121842873Y-96856654D03*
X126492873Y-96856654D03*
X131142873Y-96856654D03*
%TD*%
%TO.C,S2*%
X81812601Y-121426967D03*
X86462601Y-121426967D03*
X91112601Y-121426967D03*
X81812601Y-116676967D03*
X86462601Y-116676967D03*
X91112601Y-116676967D03*
X81812601Y-111976967D03*
X86462601Y-111976967D03*
X91112601Y-111976967D03*
X81812601Y-107226967D03*
X86462601Y-107226967D03*
X91112601Y-107226967D03*
%TD*%
M02*
